<svg width="109" height="59" viewBox="0 0 109 59" fill="none" xmlns="http://www.w3.org/2000/svg">
<path d="M8.625 38.7812C10.1641 38.7812 11.3984 39.3438 12.3281 40.4688C13.2656 41.5938 13.7344 43.2656 13.7344 45.4844C13.7344 46.9531 13.5156 48.1914 13.0781 49.1992C12.6484 50.1992 12.043 50.957 11.2617 51.4727C10.4883 51.9805 9.58594 52.2344 8.55469 52.2344C7.89844 52.2344 7.32812 52.1484 6.84375 51.9766C6.35938 51.8047 5.94531 51.582 5.60156 51.3086C5.25781 51.0273 4.96875 50.7227 4.73438 50.3945H4.57031C4.60938 50.707 4.64453 51.0547 4.67578 51.4375C4.71484 51.8125 4.73438 52.1562 4.73438 52.4688V57.7539H1.96875V39.0273H4.21875L4.60547 40.8203H4.73438C4.97656 40.4531 5.26953 40.1133 5.61328 39.8008C5.96484 39.4883 6.38672 39.2422 6.87891 39.0625C7.37891 38.875 7.96094 38.7812 8.625 38.7812ZM7.88672 41.0312C7.12891 41.0312 6.51953 41.1836 6.05859 41.4883C5.60547 41.7852 5.27344 42.2344 5.0625 42.8359C4.85938 43.4375 4.75 44.1914 4.73438 45.0977V45.4844C4.73438 46.4453 4.83203 47.2617 5.02734 47.9336C5.23047 48.5977 5.5625 49.1055 6.02344 49.457C6.49219 49.8008 7.125 49.9727 7.92188 49.9727C8.59375 49.9727 9.14844 49.7891 9.58594 49.4219C10.0312 49.0547 10.3633 48.5312 10.582 47.8516C10.8008 47.1719 10.9102 46.3711 10.9102 45.4492C10.9102 44.0508 10.6602 42.9648 10.1602 42.1914C9.66797 41.418 8.91016 41.0312 7.88672 41.0312ZM19.6875 52H16.9219V33.7656H19.6875V52ZM28.7109 38.7812C30.3516 38.7812 31.5898 39.1445 32.4258 39.8711C33.2695 40.5977 33.6914 41.7305 33.6914 43.2695V52H31.7344L31.207 50.1602H31.1133C30.7461 50.6289 30.3672 51.0156 29.9766 51.3203C29.5859 51.625 29.1328 51.8516 28.6172 52C28.1094 52.1562 27.4883 52.2344 26.7539 52.2344C25.9805 52.2344 25.2891 52.0938 24.6797 51.8125C24.0703 51.5234 23.5898 51.0859 23.2383 50.5C22.8867 49.9141 22.7109 49.1719 22.7109 48.2734C22.7109 46.9375 23.207 45.9336 24.1992 45.2617C25.1992 44.5898 26.707 44.2188 28.7227 44.1484L30.9727 44.0664V43.3867C30.9727 42.4883 30.7617 41.8477 30.3398 41.4648C29.9258 41.082 29.3398 40.8906 28.582 40.8906C27.9336 40.8906 27.3047 40.9844 26.6953 41.1719C26.0859 41.3594 25.4922 41.5898 24.9141 41.8633L24.0234 39.918C24.6562 39.582 25.375 39.3086 26.1797 39.0977C26.9922 38.8867 27.8359 38.7812 28.7109 38.7812ZM30.9609 45.8008L29.2852 45.8594C27.9102 45.9062 26.9453 46.1406 26.3906 46.5625C25.8359 46.9844 25.5586 47.5625 25.5586 48.2969C25.5586 48.9375 25.75 49.4062 26.1328 49.7031C26.5156 49.9922 27.0195 50.1367 27.6445 50.1367C28.5977 50.1367 29.3867 49.8672 30.0117 49.3281C30.6445 48.7812 30.9609 47.9805 30.9609 46.9258V45.8008ZM44.3086 38.7812C45.7695 38.7812 46.9062 39.1602 47.7188 39.918C48.5391 40.668 48.9492 41.875 48.9492 43.5391V52H46.1953V44.0547C46.1953 43.0469 45.9883 42.293 45.5742 41.793C45.1602 41.2852 44.5195 41.0312 43.6523 41.0312C42.3945 41.0312 41.5195 41.418 41.0273 42.1914C40.543 42.9648 40.3008 44.0859 40.3008 45.5547V52H37.5469V39.0273H39.6914L40.0781 40.7852H40.2305C40.5117 40.332 40.8594 39.9609 41.2734 39.6719C41.6953 39.375 42.1641 39.1523 42.6797 39.0039C43.2031 38.8555 43.7461 38.7812 44.3086 38.7812ZM59.5664 38.7812C61.0273 38.7812 62.1641 39.1602 62.9766 39.918C63.7969 40.668 64.207 41.875 64.207 43.5391V52H61.4531V44.0547C61.4531 43.0469 61.2461 42.293 60.832 41.793C60.418 41.2852 59.7773 41.0312 58.9102 41.0312C57.6523 41.0312 56.7773 41.418 56.2852 42.1914C55.8008 42.9648 55.5586 44.0859 55.5586 45.5547V52H52.8047V39.0273H54.9492L55.3359 40.7852H55.4883C55.7695 40.332 56.1172 39.9609 56.5312 39.6719C56.9531 39.375 57.4219 39.1523 57.9375 39.0039C58.4609 38.8555 59.0039 38.7812 59.5664 38.7812ZM73.2305 38.7812C74.3867 38.7812 75.3789 39.0195 76.207 39.4961C77.0352 39.9727 77.6719 40.6484 78.1172 41.5234C78.5625 42.3984 78.7852 43.4453 78.7852 44.6641V46.1406H70.125C70.1562 47.3984 70.4922 48.3672 71.1328 49.0469C71.7812 49.7266 72.6875 50.0664 73.8516 50.0664C74.6797 50.0664 75.4219 49.9883 76.0781 49.832C76.7422 49.668 77.4258 49.4297 78.1289 49.1172V51.3555C77.4805 51.6602 76.8203 51.8828 76.1484 52.0234C75.4766 52.1641 74.6719 52.2344 73.7344 52.2344C72.4609 52.2344 71.3398 51.9883 70.3711 51.4961C69.4102 50.9961 68.6562 50.2539 68.1094 49.2695C67.5703 48.2852 67.3008 47.0625 67.3008 45.6016C67.3008 44.1484 67.5469 42.9141 68.0391 41.8984C68.5312 40.8828 69.2227 40.1094 70.1133 39.5781C71.0039 39.0469 72.043 38.7812 73.2305 38.7812ZM73.2305 40.8555C72.3633 40.8555 71.6602 41.1367 71.1211 41.6992C70.5898 42.2617 70.2773 43.0859 70.1836 44.1719H76.0898C76.082 43.5234 75.9727 42.9492 75.7617 42.4492C75.5586 41.9492 75.2461 41.5586 74.8242 41.2773C74.4102 40.9961 73.8789 40.8555 73.2305 40.8555ZM88.4648 38.7812C88.6836 38.7812 88.9219 38.793 89.1797 38.8164C89.4375 38.8398 89.6602 38.8711 89.8477 38.9102L89.5898 41.4883C89.4258 41.4414 89.2227 41.4062 88.9805 41.3828C88.7461 41.3594 88.5352 41.3477 88.3477 41.3477C87.8555 41.3477 87.3867 41.4297 86.9414 41.5938C86.4961 41.75 86.1016 41.9922 85.7578 42.3203C85.4141 42.6406 85.1445 43.043 84.9492 43.5273C84.7539 44.0117 84.6562 44.5742 84.6562 45.2148V52H81.8906V39.0273H84.0469L84.4219 41.3125H84.5508C84.8086 40.8516 85.1289 40.4297 85.5117 40.0469C85.8945 39.6641 86.332 39.3594 86.8242 39.1328C87.3242 38.8984 87.8711 38.7812 88.4648 38.7812Z" fill="white"/>
<path d="M108.562 14.8924C108.562 18.394 107.91 21.3052 106.605 23.6259C105.301 25.9466 103.461 27.6906 101.085 28.8578C98.7231 30.0113 95.9424 30.588 92.7429 30.588H83V0.473755H93.4226C96.6633 0.473755 99.4097 1.0299 101.662 2.14219C103.914 3.25449 105.623 4.88173 106.791 7.02392C107.972 9.16611 108.562 11.7889 108.562 14.8924ZM100.117 15.1807C100.117 13.3544 99.8698 11.8439 99.3754 10.6492C98.8948 9.44075 98.167 8.54131 97.192 7.95083C96.2171 7.34662 94.988 7.04452 93.505 7.04452H91.1362V23.9143H92.9488C95.4206 23.9143 97.2332 23.2002 98.3867 21.7721C99.5402 20.3302 100.117 18.1331 100.117 15.1807Z" fill="white"/>
<path d="M8.01262 30.588H0V0.473755H17.7967V7.00332H8.01262V12.7502H17.0346V19.2797H8.01262V30.588Z" fill="white"/>
<path fill-rule="evenodd" clip-rule="evenodd" d="M52.0746 25.9744C51.0234 24.8283 48.9766 24.8283 47.9254 25.9744C45.498 28.6208 42.1631 30.4213 38.4138 30.883V24.9734C38.5515 23.9699 39.0988 22.7675 39.6435 21.7703C40.381 20.4201 40.8851 18.9324 40.8851 17.394V6.2823H39.1058V16.2992H36.9311V6.2823H35.1517V16.2992H32.977V6.2823H31V16.8858C31 18.7343 31.7522 20.4863 32.668 22.092C33.1144 22.8746 33.5157 23.7784 33.669 24.6798V30.7421C26.4605 29.4117 21 23.0935 21 15.5C21 6.93959 27.9396 0 36.5 0C41.0221 0 45.0919 1.93655 47.9254 5.02559C48.9766 6.17165 51.0234 6.17166 52.0746 5.02559C54.9081 1.93655 58.9779 0 63.5 0C72.0604 0 79 6.93959 79 15.5C79 22.8568 73.8747 29.0165 67 30.6032V25.342L67 5.78646C63.0726 5.78646 59.8889 8.97021 59.8889 12.8976V27.1198H62.5556V30.9717C58.4131 30.7227 54.7094 28.8468 52.0746 25.9744Z" fill="white"/>
</svg>
